<svg height="1982" width="720" xmlns="http://www.w3.org/2000/svg">
<rect height="1982" fill="#555" width="720"></rect>
<text fill="#7f7" font-family="Courier New" font-size="12" xml:space="preserve">
<tspan x="10" y="26">6 megabytes installed</tspan>
<tspan x="10" y="42"></tspan>
<tspan x="10" y="58">node_modules</tspan>
<tspan x="10" y="74">└─┬ gulp-combine-mq@0.4.0 </tspan>
<tspan x="10" y="90">  ├─┬ combine-mq@0.7.0 </tspan>
<tspan x="10" y="106">  │ ├─┬ chalk@0.5.1 </tspan>
<tspan x="10" y="122">  │ │ ├── ansi-styles@1.1.0 </tspan>
<tspan x="10" y="138">  │ │ ├── escape-string-regexp@1.0.5 </tspan>
<tspan x="10" y="154">  │ │ ├─┬ has-ansi@0.1.0 </tspan>
<tspan x="10" y="170">  │ │ │ └── ansi-regex@0.2.1 </tspan>
<tspan x="10" y="186">  │ │ ├── strip-ansi@0.3.0 </tspan>
<tspan x="10" y="202">  │ │ └── supports-color@0.2.0 </tspan>
<tspan x="10" y="218">  │ ├─┬ commander@2.9.0 </tspan>
<tspan x="10" y="234">  │ │ └── graceful-readlink@1.0.1 </tspan>
<tspan x="10" y="250">  │ ├─┬ css-parse@2.0.0 </tspan>
<tspan x="10" y="266">  │ │ └─┬ css@2.2.1 </tspan>
<tspan x="10" y="282">  │ │   ├─┬ source-map@0.1.43 </tspan>
<tspan x="10" y="298">  │ │   │ └── amdefine@1.0.1 </tspan>
<tspan x="10" y="314">  │ │   ├─┬ source-map-resolve@0.3.1 </tspan>
<tspan x="10" y="330">  │ │   │ ├── atob@1.1.3 </tspan>
<tspan x="10" y="346">  │ │   │ ├── resolve-url@0.2.1 </tspan>
<tspan x="10" y="362">  │ │   │ └── source-map-url@0.3.0 </tspan>
<tspan x="10" y="378">  │ │   └── urix@0.1.0 </tspan>
<tspan x="10" y="394">  │ ├── css-stringify@2.0.0 </tspan>
<tspan x="10" y="410">  │ ├── cssbeautify@0.3.1 </tspan>
<tspan x="10" y="426">  │ ├─┬ dammit@0.5.1 </tspan>
<tspan x="10" y="442">  │ │ └── unique-random@0.1.1 </tspan>
<tspan x="10" y="458">  │ ├─┬ mkdirp@0.5.1 </tspan>
<tspan x="10" y="474">  │ │ └── minimist@0.0.8 </tspan>
<tspan x="10" y="490">  │ └─┬ superb@1.3.0 </tspan>
<tspan x="10" y="506">  │   ├─┬ meow@3.7.0 </tspan>
<tspan x="10" y="522">  │   │ ├─┬ camelcase-keys@2.1.0 </tspan>
<tspan x="10" y="538">  │   │ │ └── camelcase@2.1.1 </tspan>
<tspan x="10" y="554">  │   │ ├── decamelize@1.2.0 </tspan>
<tspan x="10" y="570">  │   │ ├─┬ loud-rejection@1.6.0 </tspan>
<tspan x="10" y="586">  │   │ │ ├─┬ currently-unhandled@0.4.1 </tspan>
<tspan x="10" y="602">  │   │ │ │ └── array-find-index@1.0.2 </tspan>
<tspan x="10" y="618">  │   │ │ └── signal-exit@3.0.2 </tspan>
<tspan x="10" y="634">  │   │ ├── map-obj@1.0.1 </tspan>
<tspan x="10" y="650">  │   │ ├── minimist@1.2.0 </tspan>
<tspan x="10" y="666">  │   │ ├─┬ normalize-package-data@2.3.6 </tspan>
<tspan x="10" y="682">  │   │ │ ├── hosted-git-info@2.4.2 </tspan>
<tspan x="10" y="698">  │   │ │ ├─┬ is-builtin-module@1.0.0 </tspan>
<tspan x="10" y="714">  │   │ │ │ └── builtin-modules@1.1.1 </tspan>
<tspan x="10" y="730">  │   │ │ ├── semver@5.3.0 </tspan>
<tspan x="10" y="746">  │   │ │ └─┬ validate-npm-package-license@3.0.1 </tspan>
<tspan x="10" y="762">  │   │ │   ├─┬ spdx-correct@1.0.2 </tspan>
<tspan x="10" y="778">  │   │ │   │ └── spdx-license-ids@1.2.2 </tspan>
<tspan x="10" y="794">  │   │ │   └── spdx-expression-parse@1.0.4 </tspan>
<tspan x="10" y="810">  │   │ ├── object-assign@4.1.1 </tspan>
<tspan x="10" y="826">  │   │ ├─┬ read-pkg-up@1.0.1 </tspan>
<tspan x="10" y="842">  │   │ │ ├─┬ find-up@1.1.2 </tspan>
<tspan x="10" y="858">  │   │ │ │ ├── path-exists@2.1.0 </tspan>
<tspan x="10" y="874">  │   │ │ │ └─┬ pinkie-promise@2.0.1 </tspan>
<tspan x="10" y="890">  │   │ │ │   └── pinkie@2.0.4 </tspan>
<tspan x="10" y="906">  │   │ │ └─┬ read-pkg@1.1.0 </tspan>
<tspan x="10" y="922">  │   │ │   ├─┬ load-json-file@1.1.0 </tspan>
<tspan x="10" y="938">  │   │ │   │ ├── graceful-fs@4.1.11 </tspan>
<tspan x="10" y="954">  │   │ │   │ ├─┬ parse-json@2.2.0 </tspan>
<tspan x="10" y="970">  │   │ │   │ │ └─┬ error-ex@1.3.1 </tspan>
<tspan x="10" y="986">  │   │ │   │ │   └── is-arrayish@0.2.1 </tspan>
<tspan x="10" y="1002">  │   │ │   │ ├── pify@2.3.0 </tspan>
<tspan x="10" y="1018">  │   │ │   │ └─┬ strip-bom@2.0.0 </tspan>
<tspan x="10" y="1034">  │   │ │   │   └── is-utf8@0.2.1 </tspan>
<tspan x="10" y="1050">  │   │ │   └─┬ path-type@1.1.0 </tspan>
<tspan x="10" y="1066">  │   │ │     └── graceful-fs@4.1.11 </tspan>
<tspan x="10" y="1082">  │   │ ├─┬ redent@1.0.0 </tspan>
<tspan x="10" y="1098">  │   │ │ ├─┬ indent-string@2.1.0 </tspan>
<tspan x="10" y="1114">  │   │ │ │ └─┬ repeating@2.0.1 </tspan>
<tspan x="10" y="1130">  │   │ │ │   └─┬ is-finite@1.0.2 </tspan>
<tspan x="10" y="1146">  │   │ │ │     └── number-is-nan@1.0.1 </tspan>
<tspan x="10" y="1162">  │   │ │ └── strip-indent@1.0.1 </tspan>
<tspan x="10" y="1178">  │   │ └── trim-newlines@1.0.0 </tspan>
<tspan x="10" y="1194">  │   └─┬ unique-random-array@1.0.0 </tspan>
<tspan x="10" y="1210">  │     └── unique-random@1.0.0 </tspan>
<tspan x="10" y="1226">  ├─┬ graceful-fs@3.0.11 </tspan>
<tspan x="10" y="1242">  │ └── natives@1.1.0 </tspan>
<tspan x="10" y="1258">  ├─┬ gulp-util@2.2.20 </tspan>
<tspan x="10" y="1274">  │ ├─┬ dateformat@1.0.12 </tspan>
<tspan x="10" y="1290">  │ │ └── get-stdin@4.0.1 </tspan>
<tspan x="10" y="1306">  │ ├── lodash._reinterpolate@2.4.1 </tspan>
<tspan x="10" y="1322">  │ ├─┬ lodash.template@2.4.1 </tspan>
<tspan x="10" y="1338">  │ │ ├── lodash._escapestringchar@2.4.1 </tspan>
<tspan x="10" y="1354">  │ │ ├─┬ lodash.defaults@2.4.1 </tspan>
<tspan x="10" y="1370">  │ │ │ └── lodash._objecttypes@2.4.1 </tspan>
<tspan x="10" y="1386">  │ │ ├─┬ lodash.escape@2.4.1 </tspan>
<tspan x="10" y="1402">  │ │ │ ├─┬ lodash._escapehtmlchar@2.4.1 </tspan>
<tspan x="10" y="1418">  │ │ │ │ └── lodash._htmlescapes@2.4.1 </tspan>
<tspan x="10" y="1434">  │ │ │ └── lodash._reunescapedhtml@2.4.1 </tspan>
<tspan x="10" y="1450">  │ │ ├─┬ lodash.keys@2.4.1 </tspan>
<tspan x="10" y="1466">  │ │ │ ├── lodash._isnative@2.4.1 </tspan>
<tspan x="10" y="1482">  │ │ │ ├── lodash._shimkeys@2.4.1 </tspan>
<tspan x="10" y="1498">  │ │ │ └── lodash.isobject@2.4.1 </tspan>
<tspan x="10" y="1514">  │ │ ├── lodash.templatesettings@2.4.1 </tspan>
<tspan x="10" y="1530">  │ │ └── lodash.values@2.4.1 </tspan>
<tspan x="10" y="1546">  │ ├── minimist@0.2.0 </tspan>
<tspan x="10" y="1562">  │ ├─┬ multipipe@0.1.2 </tspan>
<tspan x="10" y="1578">  │ │ └─┬ duplexer2@0.0.2 </tspan>
<tspan x="10" y="1594">  │ │   └── readable-stream@1.1.14 </tspan>
<tspan x="10" y="1610">  │ ├─┬ through2@0.5.1 </tspan>
<tspan x="10" y="1626">  │ │ ├─┬ readable-stream@1.0.34 </tspan>
<tspan x="10" y="1642">  │ │ │ ├── isarray@0.0.1 </tspan>
<tspan x="10" y="1658">  │ │ │ └── string_decoder@0.10.31 </tspan>
<tspan x="10" y="1674">  │ │ └── xtend@3.0.0 </tspan>
<tspan x="10" y="1690">  │ └─┬ vinyl@0.2.3 </tspan>
<tspan x="10" y="1706">  │   └── clone-stats@0.0.1 </tspan>
<tspan x="10" y="1722">  ├── map-stream@0.1.0 </tspan>
<tspan x="10" y="1738">  ├── path@0.4.10 </tspan>
<tspan x="10" y="1754">  ├─┬ temp-write@1.1.2 </tspan>
<tspan x="10" y="1770">  │ ├── graceful-fs@4.1.11 </tspan>
<tspan x="10" y="1786">  │ ├── os-tmpdir@1.0.2 </tspan>
<tspan x="10" y="1802">  │ └── uuid@2.0.3 </tspan>
<tspan x="10" y="1818">  └─┬ through2@2.0.3 </tspan>
<tspan x="10" y="1834">    ├─┬ readable-stream@2.2.9 </tspan>
<tspan x="10" y="1850">    │ ├── buffer-shims@1.0.0 </tspan>
<tspan x="10" y="1866">    │ ├── core-util-is@1.0.2 </tspan>
<tspan x="10" y="1882">    │ ├── inherits@2.0.3 </tspan>
<tspan x="10" y="1898">    │ ├── isarray@1.0.0 </tspan>
<tspan x="10" y="1914">    │ ├── process-nextick-args@1.0.7 </tspan>
<tspan x="10" y="1930">    │ ├── string_decoder@1.0.0 </tspan>
<tspan x="10" y="1946">    │ └── util-deprecate@1.0.2 </tspan>
<tspan x="10" y="1962">    └── xtend@4.0.1</tspan>
</text>
</svg>
